<svg width="173" height="20" viewBox="0 0 173 20" fill="none" xmlns="http://www.w3.org/2000/svg">
<path d="M26.2413 0.0333405H0V6.88555H26.2413V0.0333405Z" fill="white"/>
<path d="M17.1111 20V0L9.11108 0L9.11108 20H17.1111Z" fill="white"/>
<path d="M13.1206 0.0333405L8.91309 6.88555H17.3281L13.1206 0.0333405Z" fill="#52D6A6"/>
<path d="M33.5876 11.3203C33.5876 9.33594 34.1215 7.88021 35.1892 6.95312C36.2569 6.02604 37.8246 5.5625 39.8923 5.5625C41.9653 5.5625 43.5278 6.0026 44.5798 6.88281C45.6371 7.76302 46.1658 9.1875 46.1658 11.1562C46.1658 12.1979 45.9626 13.0469 45.5564 13.7031C45.2699 14.1771 44.9626 14.599 44.6345 14.9688H45.8767C46.0903 14.9688 46.2673 15.0417 46.408 15.1875C46.5486 15.3281 46.6189 15.5 46.6189 15.7031V16.3438C46.6189 16.5469 46.5486 16.7214 46.408 16.8672C46.2673 17.0078 46.0903 17.0781 45.8767 17.0781H39.8767C37.8194 17.0781 36.2569 16.6146 35.1892 15.6875C34.1215 14.7604 33.5876 13.3047 33.5876 11.3203ZM39.8767 14.9688C42.1059 14.9688 43.2205 13.6979 43.2205 11.1562C43.2205 9.97396 42.9574 9.09896 42.4314 8.53125C41.9054 7.95833 41.0564 7.67188 39.8845 7.67188C38.7179 7.67188 37.8663 7.98177 37.3298 8.60156C36.7986 9.22135 36.533 10.1276 36.533 11.3203C36.533 12.513 36.7986 13.4193 37.3298 14.0391C37.8663 14.6589 38.7153 14.9688 39.8767 14.9688ZM47.5876 12.5703V6.53906C47.5876 6.33594 47.658 6.16146 47.7986 6.01562C47.9444 5.86979 48.1241 5.79688 48.3376 5.79688H49.7986C49.9965 5.79688 50.1684 5.86979 50.3142 6.01562C50.46 6.16146 50.533 6.33594 50.533 6.53906V12.5859C50.533 13.3516 50.6996 13.9219 51.033 14.2969C51.3715 14.6719 51.8923 14.8594 52.5955 14.8594H53.8455C54.5486 14.8594 55.0668 14.6719 55.4001 14.2969C55.7387 13.9219 55.908 13.3516 55.908 12.5859V6.53906C55.908 6.33594 55.9783 6.16146 56.1189 6.01562C56.2647 5.86979 56.4392 5.79688 56.6423 5.79688H58.0955C58.309 5.79688 58.4887 5.86979 58.6345 6.01562C58.7804 6.16146 58.8533 6.33594 58.8533 6.53906V12.5703C58.8533 13.9974 58.434 15.1042 57.5955 15.8906C56.7569 16.6719 55.533 17.0625 53.9236 17.0625H52.5173C50.9028 17.0625 49.6762 16.6719 48.8376 15.8906C48.0043 15.1042 47.5876 13.9974 47.5876 12.5703ZM60.9314 16.2812V6.53906C60.9314 6.33594 61.0043 6.16146 61.1501 6.01562C61.296 5.86979 61.4705 5.79688 61.6736 5.79688H63.1267C63.3403 5.79688 63.5173 5.86979 63.658 6.01562C63.8038 6.16146 63.8767 6.33594 63.8767 6.53906V16.2656C63.8767 16.4688 63.8012 16.6432 63.6501 16.7891C63.5043 16.9297 63.3298 17 63.1267 17H61.6736C61.4705 17 61.296 16.9323 61.1501 16.7969C61.0043 16.6562 60.9314 16.4844 60.9314 16.2812ZM66.9236 15.6797C65.96 14.7578 65.4783 13.3333 65.4783 11.4062C65.4783 9.47396 65.96 8.04688 66.9236 7.125C67.8923 6.19792 69.3429 5.73438 71.2751 5.73438H73.0173C74.1996 5.73438 75.2439 6.04167 76.1501 6.65625C77.0616 7.27083 77.5173 8.11198 77.5173 9.17969C77.5173 9.48698 77.4262 9.70833 77.2439 9.84375C77.0616 9.97396 76.8845 10.0391 76.7126 10.0391H75.783C75.3038 10.0391 74.9314 9.7526 74.6658 9.17969C74.2804 8.35677 73.6397 7.94531 72.7439 7.94531H71.3533C70.2126 7.94531 69.4392 8.1901 69.033 8.67969C68.6267 9.16927 68.4236 10.0755 68.4236 11.3984C68.4236 12.7214 68.6267 13.6302 69.033 14.125C69.4392 14.6146 70.2126 14.8594 71.3533 14.8594H72.908C73.8038 14.8594 74.4418 14.4479 74.822 13.625C75.0876 13.0469 75.4626 12.7578 75.947 12.7578H76.8767C77.1215 12.7578 77.3142 12.849 77.4548 13.0312C77.6007 13.2135 77.6736 13.4115 77.6736 13.625C77.6736 14.6927 77.2205 15.5339 76.3142 16.1484C75.408 16.7578 74.3637 17.0625 73.1814 17.0625H71.2751C69.3429 17.0625 67.8923 16.6016 66.9236 15.6797ZM90.7908 16.6562C90.7908 16.8854 90.6554 17 90.3845 17H88.5955C88.3923 17 88.1736 16.9297 87.9392 16.7891C87.7048 16.6432 87.5225 16.4688 87.3923 16.2656L86.0173 14.0859C85.6892 13.5547 85.3585 13.1562 85.0251 12.8906C84.6918 12.6198 84.2908 12.4844 83.822 12.4844H82.1423V16.2812C82.1423 16.4844 82.0694 16.6562 81.9236 16.7969C81.783 16.9323 81.6111 17 81.408 17H79.9392C79.7361 17 79.5616 16.9271 79.4158 16.7812C79.2699 16.6302 79.197 16.4531 79.197 16.25V6.53906C79.197 6.33594 79.2699 6.15885 79.4158 6.00781C79.5616 5.85677 79.7361 5.78125 79.9392 5.78125H81.408C81.6111 5.78125 81.783 5.85677 81.9236 6.00781C82.0694 6.15885 82.1423 6.33594 82.1423 6.53906V10.2812H83.822C84.2804 10.2812 84.6814 10.1562 85.0251 9.90625C85.3741 9.65625 85.7048 9.2526 86.0173 8.69531L87.2283 6.53906C87.5043 6.03906 87.8793 5.78646 88.3533 5.78125H90.158C90.408 5.78125 90.533 5.89062 90.533 6.10938C90.533 6.22917 90.4887 6.3724 90.4001 6.53906L88.7048 9.60938C88.46 10.0573 88.184 10.4271 87.8767 10.7188C87.5746 11.0104 87.1788 11.2161 86.6892 11.3359C87.033 11.4089 87.3845 11.625 87.7439 11.9844C88.1085 12.3438 88.4288 12.7344 88.7048 13.1562L90.658 16.2656C90.7465 16.4167 90.7908 16.5469 90.7908 16.6562ZM96.5642 7.27344V6.53906C96.5642 6.32552 96.6345 6.14844 96.7751 6.00781C96.9158 5.86719 97.0929 5.79688 97.3064 5.79688H107.22C107.434 5.79688 107.611 5.86719 107.752 6.00781C107.892 6.14844 107.963 6.32552 107.963 6.53906V7.27344C107.963 7.48698 107.892 7.66406 107.752 7.80469C107.611 7.9401 107.434 8.00781 107.22 8.00781H103.736V16.2812C103.736 16.4844 103.663 16.6562 103.517 16.7969C103.377 16.9323 103.205 17 103.002 17H101.525C101.322 17 101.148 16.9323 101.002 16.7969C100.861 16.6562 100.791 16.4844 100.791 16.2812V8.00781H97.3064C97.0929 8.00781 96.9158 7.9401 96.7751 7.80469C96.6345 7.66406 96.5642 7.48698 96.5642 7.27344ZM120.877 16.6641C120.877 16.888 120.744 17 120.478 17H118.603C118.405 17 118.187 16.9297 117.947 16.7891C117.713 16.6432 117.533 16.4688 117.408 16.2656L116.08 14.1875C115.533 13.3333 114.872 12.9062 114.095 12.9062H112.189V16.2656C112.189 16.4688 112.116 16.6432 111.97 16.7891C111.83 16.9297 111.658 17 111.455 17H109.986C109.783 17 109.608 16.9297 109.463 16.7891C109.317 16.6432 109.244 16.4688 109.244 16.2656V6.53906C109.244 6.33594 109.314 6.16146 109.455 6.01562C109.595 5.86979 109.767 5.79688 109.97 5.79688H116.416C117.608 5.79688 118.585 6.11719 119.345 6.75781C120.111 7.39844 120.494 8.26302 120.494 9.35156C120.494 10.8672 119.512 11.8177 117.549 12.2031C117.861 12.3177 118.15 12.5156 118.416 12.7969C118.681 13.0729 118.986 13.4766 119.33 14.0078L120.752 16.2656C120.835 16.4115 120.877 16.5443 120.877 16.6641ZM112.189 10.6953H115.517C116.054 10.6953 116.525 10.5885 116.931 10.375C117.343 10.1615 117.549 9.82031 117.549 9.35156C117.549 8.88281 117.343 8.54167 116.931 8.32812C116.525 8.11458 116.054 8.00781 115.517 8.00781H112.189V10.6953ZM121.26 16.2812L123.22 8.84375C123.752 6.81771 125.481 5.80208 128.408 5.79688H132.619C132.812 5.79688 132.97 5.86979 133.095 6.01562C133.226 6.16146 133.291 6.33073 133.291 6.52344V16.2812C133.291 16.4844 133.218 16.6562 133.072 16.7969C132.926 16.9323 132.752 17 132.549 17H131.08C130.866 17 130.689 16.9323 130.549 16.7969C130.413 16.6562 130.345 16.4792 130.345 16.2656V14.2969H124.791L124.267 16.2656C124.215 16.4792 124.098 16.6562 123.916 16.7969C123.733 16.9323 123.541 17 123.338 17H121.799C121.595 17 121.45 16.9427 121.361 16.8281C121.273 16.7083 121.228 16.6042 121.228 16.5156C121.233 16.4271 121.244 16.349 121.26 16.2812ZM125.369 12.0859H130.345V8.00781H128.119C127.619 8.00781 127.181 8.15104 126.806 8.4375C126.437 8.71875 126.187 9.09896 126.056 9.57812L125.369 12.0859ZM135.525 16.2812V6.55469C135.525 6.34115 135.598 6.16146 135.744 6.01562C135.89 5.86979 136.064 5.79688 136.267 5.79688H140.635C142.895 5.79688 144.538 6.25 145.564 7.15625C146.595 8.05729 147.111 9.47396 147.111 11.4062C147.111 13.3333 146.595 14.7474 145.564 15.6484C144.538 16.5495 142.895 17 140.635 17H136.267C136.064 17 135.89 16.9323 135.744 16.7969C135.598 16.6562 135.525 16.4844 135.525 16.2812ZM138.47 14.7891H140.549C141.95 14.7891 142.903 14.5339 143.408 14.0234C143.913 13.513 144.166 12.6406 144.166 11.4062C144.166 10.1667 143.913 9.29167 143.408 8.78125C142.903 8.26562 141.95 8.00781 140.549 8.00781H138.47V14.7891ZM148.713 16.25V6.52344C148.713 6.32031 148.786 6.14844 148.931 6.00781C149.077 5.86719 149.252 5.79688 149.455 5.79688H158.463C158.666 5.79688 158.838 5.86979 158.978 6.01562C159.124 6.16146 159.197 6.33594 159.197 6.53906V7.27344C159.197 7.47656 159.124 7.65104 158.978 7.79688C158.838 7.9375 158.666 8.00781 158.463 8.00781H151.658V10.2812H157.517C157.72 10.2812 157.892 10.3542 158.033 10.5C158.179 10.6406 158.252 10.8125 158.252 11.0156V11.75C158.252 11.9531 158.179 12.1276 158.033 12.2734C157.892 12.4141 157.72 12.4844 157.517 12.4844H151.658V14.7891H158.447C158.645 14.7891 158.814 14.8594 158.955 15C159.095 15.1406 159.166 15.3125 159.166 15.5156V16.2656C159.166 16.4688 159.093 16.6432 158.947 16.7891C158.801 16.9297 158.627 17 158.424 17H149.455C149.252 17 149.077 16.9297 148.931 16.7891C148.786 16.6432 148.713 16.4635 148.713 16.25ZM172.267 16.6641C172.267 16.888 172.135 17 171.869 17H169.994C169.796 17 169.577 16.9297 169.338 16.7891C169.103 16.6432 168.924 16.4688 168.799 16.2656L167.47 14.1875C166.924 13.3333 166.262 12.9062 165.486 12.9062H163.58V16.2656C163.58 16.4688 163.507 16.6432 163.361 16.7891C163.22 16.9297 163.049 17 162.845 17H161.377C161.174 17 160.999 16.9297 160.853 16.7891C160.707 16.6432 160.635 16.4688 160.635 16.2656V6.53906C160.635 6.33594 160.705 6.16146 160.845 6.01562C160.986 5.86979 161.158 5.79688 161.361 5.79688H167.806C168.999 5.79688 169.976 6.11719 170.736 6.75781C171.502 7.39844 171.885 8.26302 171.885 9.35156C171.885 10.8672 170.903 11.8177 168.939 12.2031C169.252 12.3177 169.541 12.5156 169.806 12.7969C170.072 13.0729 170.377 13.4766 170.72 14.0078L172.142 16.2656C172.226 16.4115 172.267 16.5443 172.267 16.6641ZM163.58 10.6953H166.908C167.444 10.6953 167.916 10.5885 168.322 10.375C168.733 10.1615 168.939 9.82031 168.939 9.35156C168.939 8.88281 168.733 8.54167 168.322 8.32812C167.916 8.11458 167.444 8.00781 166.908 8.00781H163.58V10.6953Z" fill="white"/>
</svg>
